<svg id="visual" viewBox="0 0 1920 1080" width="1920" height="1080" xmlns="http://www.w3.org/2000/svg" xmlns:xlink="http://www.w3.org/1999/xlink" version="1.1"><g stroke-width="1" stroke-linejoin="bevel"><path d="M1036.7 520L1075.7 399L879.3 377Z" fill="#205a7a" stroke="#205a7a"></path><path d="M879.3 377L818.3 539L1036.7 520Z" fill="#246688" stroke="#246688"></path><path d="M1075.7 399L865.3 219L879.3 377Z" fill="#15384f" stroke="#15384f"></path><path d="M879.3 377L656 321L818.3 539Z" fill="#277297" stroke="#277297"></path><path d="M838.3 726L1055.7 722L1036.7 520Z" fill="#19435d" stroke="#19435d"></path><path d="M1309 540L1274 336L1075.7 399Z" fill="#277297" stroke="#277297"></path><path d="M1274 336L1098.7 147L1075.7 399Z" fill="#00101c" stroke="#00101c"></path><path d="M1075.7 399L1098.7 147L865.3 219Z" fill="#297ea6" stroke="#297ea6"></path><path d="M1309 540L1075.7 399L1036.7 520Z" fill="#112e42" stroke="#112e42"></path><path d="M818.3 539L838.3 726L1036.7 520Z" fill="#15384f" stroke="#15384f"></path><path d="M865.3 219L656 321L879.3 377Z" fill="#112e42" stroke="#112e42"></path><path d="M818.3 539L660 695L838.3 726Z" fill="#081a28" stroke="#081a28"></path><path d="M656 321L650 543L818.3 539Z" fill="#112e42" stroke="#112e42"></path><path d="M1249 684L1309 540L1036.7 520Z" fill="#00101c" stroke="#00101c"></path><path d="M1055.7 722L1249 684L1036.7 520Z" fill="#081a28" stroke="#081a28"></path><path d="M1274 336L1243 163L1098.7 147Z" fill="#112e42" stroke="#112e42"></path><path d="M650 543L660 695L818.3 539Z" fill="#205a7a" stroke="#205a7a"></path><path d="M1243 163L1101.7 0L1098.7 147Z" fill="#277297" stroke="#277297"></path><path d="M1098.7 147L843.3 0L865.3 219Z" fill="#00101c" stroke="#00101c"></path><path d="M865.3 219L600 172L656 321Z" fill="#1d4e6b" stroke="#1d4e6b"></path><path d="M1101.7 0L843.3 0L1098.7 147Z" fill="#205a7a" stroke="#205a7a"></path><path d="M655 0L600 172L865.3 219Z" fill="#0c2435" stroke="#0c2435"></path><path d="M408.7 361L415.7 542L650 543Z" fill="#246688" stroke="#246688"></path><path d="M650 543L415.7 542L660 695Z" fill="#19435d" stroke="#19435d"></path><path d="M671 925L875.3 889L838.3 726Z" fill="#19435d" stroke="#19435d"></path><path d="M838.3 726L875.3 889L1055.7 722Z" fill="#246688" stroke="#246688"></path><path d="M1055.7 722L1249 886L1249 684Z" fill="#246688" stroke="#246688"></path><path d="M875.3 889L1090.7 917L1055.7 722Z" fill="#19435d" stroke="#19435d"></path><path d="M1483.3 696L1309 540L1249 684Z" fill="#297ea6" stroke="#297ea6"></path><path d="M1483.3 696L1469.3 538L1309 540Z" fill="#277297" stroke="#277297"></path><path d="M1309 540L1475.3 350L1274 336Z" fill="#112e42" stroke="#112e42"></path><path d="M1274 336L1529.3 182L1243 163Z" fill="#19435d" stroke="#19435d"></path><path d="M1469.3 538L1475.3 350L1309 540Z" fill="#00101c" stroke="#00101c"></path><path d="M1243 163L1289 0L1101.7 0Z" fill="#081a28" stroke="#081a28"></path><path d="M1090.7 917L1249 886L1055.7 722Z" fill="#246688" stroke="#246688"></path><path d="M1529.3 182L1289 0L1243 163Z" fill="#15384f" stroke="#15384f"></path><path d="M843.3 0L655 0L865.3 219Z" fill="#1d4e6b" stroke="#1d4e6b"></path><path d="M408.7 361L656 321L408.7 215Z" fill="#081a28" stroke="#081a28"></path><path d="M408.7 361L650 543L656 321Z" fill="#00101c" stroke="#00101c"></path><path d="M660 695L671 925L838.3 726Z" fill="#0c2435" stroke="#0c2435"></path><path d="M408.7 215L656 321L600 172Z" fill="#1d4e6b" stroke="#1d4e6b"></path><path d="M1249 886L1483.3 696L1249 684Z" fill="#19435d" stroke="#19435d"></path><path d="M1668.7 206L1529.3 182L1475.3 350Z" fill="#00101c" stroke="#00101c"></path><path d="M388.7 726L671 925L660 695Z" fill="#246688" stroke="#246688"></path><path d="M875.3 889L1046.7 1080L1090.7 917Z" fill="#1d4e6b" stroke="#1d4e6b"></path><path d="M428.7 0L408.7 215L600 172Z" fill="#00101c" stroke="#00101c"></path><path d="M1475.3 350L1529.3 182L1274 336Z" fill="#112e42" stroke="#112e42"></path><path d="M1691.7 384L1475.3 350L1469.3 538Z" fill="#081a28" stroke="#081a28"></path><path d="M879.3 1080L1046.7 1080L875.3 889Z" fill="#0c2435" stroke="#0c2435"></path><path d="M1090.7 917L1264 1080L1249 886Z" fill="#0c2435" stroke="#0c2435"></path><path d="M1249 886L1517.3 900L1483.3 696Z" fill="#1d4e6b" stroke="#1d4e6b"></path><path d="M248.3 727L388.7 726L415.7 542Z" fill="#00101c" stroke="#00101c"></path><path d="M415.7 542L388.7 726L660 695Z" fill="#19435d" stroke="#19435d"></path><path d="M200.3 369L415.7 542L408.7 361Z" fill="#297ea6" stroke="#297ea6"></path><path d="M679 1080L879.3 1080L671 925Z" fill="#081a28" stroke="#081a28"></path><path d="M671 925L879.3 1080L875.3 889Z" fill="#246688" stroke="#246688"></path><path d="M1529.3 182L1509.3 0L1289 0Z" fill="#00101c" stroke="#00101c"></path><path d="M655 0L428.7 0L600 172Z" fill="#246688" stroke="#246688"></path><path d="M1046.7 1080L1264 1080L1090.7 917Z" fill="#297ea6" stroke="#297ea6"></path><path d="M396.7 1080L679 1080L671 925Z" fill="#205a7a" stroke="#205a7a"></path><path d="M1264 1080L1517.3 900L1249 886Z" fill="#15384f" stroke="#15384f"></path><path d="M1700.7 573L1691.7 384L1469.3 538Z" fill="#081a28" stroke="#081a28"></path><path d="M1700.7 573L1469.3 538L1483.3 696Z" fill="#112e42" stroke="#112e42"></path><path d="M1529.3 182L1722.7 0L1509.3 0Z" fill="#277297" stroke="#277297"></path><path d="M1691.7 384L1668.7 206L1475.3 350Z" fill="#0c2435" stroke="#0c2435"></path><path d="M1717.7 745L1700.7 573L1483.3 696Z" fill="#205a7a" stroke="#205a7a"></path><path d="M388.7 726L394.7 922L671 925Z" fill="#297ea6" stroke="#297ea6"></path><path d="M428.7 0L250.3 204L408.7 215Z" fill="#00101c" stroke="#00101c"></path><path d="M408.7 215L250.3 204L408.7 361Z" fill="#277297" stroke="#277297"></path><path d="M388.7 726L245.3 898L394.7 922Z" fill="#112e42" stroke="#112e42"></path><path d="M250.3 204L200.3 369L408.7 361Z" fill="#081a28" stroke="#081a28"></path><path d="M189.3 550L248.3 727L415.7 542Z" fill="#00101c" stroke="#00101c"></path><path d="M200.3 369L189.3 550L415.7 542Z" fill="#246688" stroke="#246688"></path><path d="M1671.7 873L1717.7 745L1483.3 696Z" fill="#00101c" stroke="#00101c"></path><path d="M1920 369L1668.7 206L1691.7 384Z" fill="#277297" stroke="#277297"></path><path d="M1531.3 1080L1671.7 873L1517.3 900Z" fill="#00101c" stroke="#00101c"></path><path d="M1517.3 900L1671.7 873L1483.3 696Z" fill="#19435d" stroke="#19435d"></path><path d="M1264 1080L1531.3 1080L1517.3 900Z" fill="#19435d" stroke="#19435d"></path><path d="M0 862L245.3 898L248.3 727Z" fill="#112e42" stroke="#112e42"></path><path d="M248.3 727L245.3 898L388.7 726Z" fill="#1d4e6b" stroke="#1d4e6b"></path><path d="M394.7 922L396.7 1080L671 925Z" fill="#277297" stroke="#277297"></path><path d="M1920 147L1722.7 0L1668.7 206Z" fill="#0c2435" stroke="#0c2435"></path><path d="M1668.7 206L1722.7 0L1529.3 182Z" fill="#297ea6" stroke="#297ea6"></path><path d="M1920 369L1691.7 384L1920 562Z" fill="#246688" stroke="#246688"></path><path d="M245.3 898L396.7 1080L394.7 922Z" fill="#205a7a" stroke="#205a7a"></path><path d="M0 326L0 528L200.3 369Z" fill="#0c2435" stroke="#0c2435"></path><path d="M200.3 369L0 528L189.3 550Z" fill="#19435d" stroke="#19435d"></path><path d="M428.7 0L207.3 0L250.3 204Z" fill="#1d4e6b" stroke="#1d4e6b"></path><path d="M1920 562L1700.7 573L1717.7 745Z" fill="#19435d" stroke="#19435d"></path><path d="M1920 562L1691.7 384L1700.7 573Z" fill="#277297" stroke="#277297"></path><path d="M1920 754L1920 562L1717.7 745Z" fill="#15384f" stroke="#15384f"></path><path d="M1920 754L1717.7 745L1920 899Z" fill="#19435d" stroke="#19435d"></path><path d="M1531.3 1080L1698.7 1080L1671.7 873Z" fill="#277297" stroke="#277297"></path><path d="M189.3 550L0 735L248.3 727Z" fill="#112e42" stroke="#112e42"></path><path d="M0 326L200.3 369L250.3 204Z" fill="#081a28" stroke="#081a28"></path><path d="M0 178L0 326L250.3 204Z" fill="#277297" stroke="#277297"></path><path d="M1920 369L1920 147L1668.7 206Z" fill="#00101c" stroke="#00101c"></path><path d="M1920 899L1717.7 745L1671.7 873Z" fill="#19435d" stroke="#19435d"></path><path d="M245.3 898L206.3 1080L396.7 1080Z" fill="#205a7a" stroke="#205a7a"></path><path d="M0 862L206.3 1080L245.3 898Z" fill="#081a28" stroke="#081a28"></path><path d="M207.3 0L0 178L250.3 204Z" fill="#1d4e6b" stroke="#1d4e6b"></path><path d="M0 528L0 735L189.3 550Z" fill="#277297" stroke="#277297"></path><path d="M1920 147L1920 0L1722.7 0Z" fill="#205a7a" stroke="#205a7a"></path><path d="M1698.7 1080L1920 899L1671.7 873Z" fill="#15384f" stroke="#15384f"></path><path d="M0 735L0 862L248.3 727Z" fill="#1d4e6b" stroke="#1d4e6b"></path><path d="M207.3 0L0 0L0 178Z" fill="#19435d" stroke="#19435d"></path><path d="M1698.7 1080L1920 1080L1920 899Z" fill="#297ea6" stroke="#297ea6"></path><path d="M0 862L0 1080L206.3 1080Z" fill="#297ea6" stroke="#297ea6"></path></g></svg>